<?xml version="1.0" encoding="iso-8859-1"?>
<!-- Uploaded to: SVG Repo, www.svgrepo.com, Generator: SVG Repo Mixer Tools -->
<svg fill="#000000" height="800px" width="800px" version="1.1" id="Layer_1" xmlns="http://www.w3.org/2000/svg" xmlns:xlink="http://www.w3.org/1999/xlink" 
	 viewBox="0 0 512.002 512.002" xml:space="preserve">
<g>
	<g>
		<g>
			<path d="M209.79,114.226c3.644,5.894,9.949,9.136,16.404,9.136c3.456,0,6.957-0.931,10.114-2.882
				c9.049-5.595,11.849-17.468,6.253-26.517c-4.12-6.663-2.108-16.07,1.695-30.769c4.109-15.88,9.222-35.644-1.508-53.749
				c-5.425-9.152-17.244-12.174-26.396-6.749c-9.154,5.425-12.176,17.242-6.751,26.396c2.561,4.318-0.087,14.553-2.648,24.45
				C202.396,71.163,196.721,93.092,209.79,114.226z"/>
			<path d="M270.867,114.224c3.644,5.894,9.95,9.137,16.404,9.137c3.456,0,6.957-0.931,10.113-2.881
				c9.05-5.595,11.851-17.468,6.255-26.517c-4.12-6.663-2.108-16.07,1.695-30.77c4.109-15.88,9.222-35.644-1.508-53.749
				c-5.425-9.152-17.244-12.174-26.396-6.749c-9.154,5.425-12.174,17.242-6.75,26.396c2.561,4.319-0.087,14.554-2.648,24.451
				C263.474,71.164,257.801,93.092,270.867,114.224z"/>
			<path d="M153.449,238.842L91.125,461.62c0.885,27.931,23.882,50.382,52.024,50.382h0.374c-4.502-7.675-7.095-16.599-7.095-26.121
				c0-0.682,0.054-1.363,0.162-2.036l18.622-115.998c0.586-28.066,23.597-50.715,51.8-50.715h97.98
				c28.202,0,51.212,22.651,51.798,50.715l18.623,115.998c0.108,0.673,0.162,1.354,0.162,2.036c0,9.522-2.594,18.446-7.095,26.121
				h0.374c28.141-0.001,51.138-22.452,52.023-50.382l-62.324-222.778H153.449z"/>
			<path d="M331.113,368.94c0-14.405-11.718-26.124-26.121-26.124h-97.98c-14.405,0-26.124,11.718-26.124,26.124
				c0,0.682-0.054,1.363-0.162,2.036l-18.595,115.829c0.488,13.976,12.011,25.196,26.106,25.196h135.527
				c14.096,0,25.619-11.22,26.107-25.196l-18.596-115.829C331.167,370.303,331.113,369.622,331.113,368.94z M282.973,472.15h-53.946
				c-3.003-4.846-4.738-10.563-4.738-16.682c0-5.663,1.49-10.972,4.091-15.575h-0.068l27.59-47.788l26.136,45.269
				c3.572,5.132,5.673,11.368,5.673,18.094C287.711,461.588,285.978,467.304,282.973,472.15z"/>
			<path d="M74.847,164.185c0,30.397,24.64,55.039,55.038,55.039h2.919h246.394h2.917c30.397,0,55.039-24.643,55.039-55.039H74.847z
				"/>
		</g>
	</g>
</g>
</svg>