<?xml version="1.0" encoding="iso-8859-1"?>
<!-- Uploaded to: SVG Repo, www.svgrepo.com, Generator: SVG Repo Mixer Tools -->
<svg fill="#000000" version="1.1" id="Capa_1" xmlns="http://www.w3.org/2000/svg" xmlns:xlink="http://www.w3.org/1999/xlink" 
	 viewBox="0 0 490 490" xml:space="preserve">
<g>
	<g>
		<g>
			<rect x="56.4" y="105.55" width="280.4" height="248.1"/>
			<path d="M490,47.25H0v355.8h49v39.7h84.4v-39.7h222.8v39.7h84.4v-39.7H490V47.25z M390.4,107.85h68.8v59.9h-68.8L390.4,107.85z
				 M395.9,235.85H408c5.4,0,10.1,4.3,10.1,10.1c0,5.4-4.3,10.1-10.1,10.1h-12.1c-5.4,0-10.1-4.3-10.1-10.1
				C385.8,240.45,390.4,235.85,395.9,235.85z M395.9,275.05H408c5.4,0,10.1,4.3,10.1,10.1c0,5.8-4.3,10.1-10.1,10.1h-12.1
				c-5.4,0-10.1-4.3-10.1-10.1S390.4,275.05,395.9,275.05z M395.9,314.35H408c5.4,0,10.1,4.3,10.1,10.1c0,5.4-4.3,10.1-10.1,10.1
				h-12.1c-5.4,0-10.1-4.3-10.1-10.1C385.8,319.05,390.4,314.35,395.9,314.35z M395.9,353.65H408c5.4,0,10.1,4.3,10.1,10.1
				c0,5.4-4.3,10.1-10.1,10.1h-12.1c-5.4,0-10.1-4.3-10.1-10.1S390.4,353.65,395.9,353.65z M346.9,373.45H46.7
				c-5.4,0-10.1-4.3-10.1-10.1V95.45c0-5.4,4.3-10.1,10.1-10.1h300.2c5.4,0,10.1,4.3,10.1,10.1v267.9
				C357,369.25,352.3,373.45,346.9,373.45z M453.4,373.45h-12.1c-5.4,0-10.1-4.3-10.1-10.1c0-5.4,4.3-10.1,10.1-10.1h12.1
				c5.4,0,10.1,4.3,10.1,10.1C463.6,369.25,459.3,373.45,453.4,373.45z M453.4,334.25h-12.1c-5.4,0-10.1-4.3-10.1-10.1
				c0-5.4,4.3-10.1,10.1-10.1h12.1c5.4,0,10.1,4.3,10.1,10.1C463.6,329.95,459.3,334.25,453.4,334.25z M453.4,294.95h-12.1
				c-5.4,0-10.1-4.3-10.1-10.1c0-5.8,4.3-10.1,10.1-10.1h12.1c5.4,0,10.1,4.3,10.1,10.1C463.6,290.65,459.3,294.95,453.4,294.95z
				 M453.4,255.65h-12.1c-5.4,0-10.1-4.3-10.1-10.1c0-5.4,4.3-10.1,10.1-10.1h12.1c5.4,0,10.1,4.3,10.1,10.1
				C463.6,251.35,459.3,255.65,453.4,255.65z"/>
		</g>
	</g>
</g>
</svg>